PathFileType	4	(x/y/z)	S10_P20_T26
DataRate	CameraRate	NumFrames	NumMarkers	Units	OrigDataRate	OrigDataStartFrame	OrigNumFrames
240	240	10	51	mm	240	1	414
Frame#	Time	Sternum			R.Acromium			L.Acromium			Top.Head			R.ASIS			L.ASIS			R.PSIS			L.PSIS			R.Great.Tro			L.Great.Tro			R.Iliac.Crest			L.Iliac.Crest			V.Sacral			R.Thigh.Upper.Post			R.Thigh.Lower.Ant			R.Thigh.Lower.Post			R.Thigh.Upper.Ant			R.Knee.Lat			R.Knee.Med			R.Shank.Upper.Post			R.Shank.Lower.Ant			R.Shank.Lower.Post			R.Shank.Upper.Ant			R.Ankle.Lat			R.Ankle.Med			R.Heel.Upper			R.Heel.Med			R.Heel.Lat			R.Toe.Lat			R.Toe.Med			R.Toe.Tip			L.Thigh.Upper.Post			L.Thigh.Lower.Ant			L.Thigh.Lower.Post			L.Thigh.Upper.Ant			L.Knee.Lat			L.Knee.Med			L.Shank.Upper.Post			L.Shank.Lower.Ant			L.Shank.Lower.Post			L.Shank.Upper.Ant			L.Ankle.Lat			L.Ankle.Med			L.Heel.Upper			L.Heel.Med			L.Heel.Lat			L.Toe.Lat			L.Toe.Med			L.Toe.Tip			Cervical.Spine			Back			
		X1	Y1	Z1	X2	Y2	Z2	X3	Y3	Z3	X4	Y4	Z4	X5	Y5	Z5	X6	Y6	Z6	X7	Y7	Z7	X8	Y8	Z8	X9	Y9	Z9	X10	Y10	Z10	X11	Y11	Z11	X12	Y12	Z12	X13	Y13	Z13	X14	Y14	Z14	X15	Y15	Z15	X16	Y16	Z16	X17	Y17	Z17	X18	Y18	Z18	X19	Y19	Z19	X20	Y20	Z20	X21	Y21	Z21	X22	Y22	Z22	X23	Y23	Z23	X24	Y24	Z24	X25	Y25	Z25	X26	Y26	Z26	X27	Y27	Z27	X28	Y28	Z28	X29	Y29	Z29	X30	Y30	Z30	X31	Y31	Z31	X32	Y32	Z32	X33	Y33	Z33	X34	Y34	Z34	X35	Y35	Z35	X36	Y36	Z36	X37	Y37	Z37	X38	Y38	Z38	X39	Y39	Z39	X40	Y40	Z40	X41	Y41	Z41	X42	Y42	Z42	X43	Y43	Z43	X44	Y44	Z44	X45	Y45	Z45	X46	Y46	Z46	X47	Y47	Z47	X48	Y48	Z48	X49	Y49	Z49	X50	Y50	Z50	X51	Y51	Z51	

1	0	NaN	NaN	NaN	-1440.2	1429.8	455.17	-1485.5	1450.1	154.36	-1458.8	1747.6	317.9	NaN	NaN	NaN	NaN	NaN	NaN	-1597.6	1024.6	333.99	-1597.2	1033	252.82	-1469.1	925.76	490.5	-1460.1	958.98	124.44	-1484.8	1081.2	463.44	-1477.9	1095.1	161.24	-1617.6	994.4	297.43	NaN	NaN	NaN	-1512.7	623.98	452.03	NaN	NaN	NaN	NaN	NaN	NaN	-1610.2	525.52	422.45	-1607.4	533.71	290.68	-1757.7	342.05	416.09	-1711.4	262.24	395.05	-1787.2	274.36	406.98	-1684.5	327.59	405.25	-1809.5	166.98	385.2	-1807.5	178.32	306.05	NaN	NaN	NaN	-1891.3	113.9	314.42	NaN	NaN	NaN	-1749	44.306	425.27	-1708.4	48.719	301.83	-1646.6	53.909	336.23	-1417.3	677.85	131.69	-1318.5	623.46	151.54	-1386.6	588.39	151.98	NaN	NaN	NaN	-1324.4	519.67	161.2	-1316.5	520.52	291.8	-1314.2	297.7	162.17	-1223.5	237.33	179.72	-1286	225.22	173.07	-1250.3	308.33	167.49	-1214	117.11	186.69	-1206.7	132.73	271.84	-1262.2	63.545	229.54	-1243.1	39.67	264.95	-1241.9	38.398	200.54	-1072.8	93.111	175.32	NaN	NaN	NaN	-1014.4	147.66	238.22	-1542.9	1492.8	326.15	-1628.7	1284.1	328.85
2	0.0041667	NaN	NaN	NaN	-1435.7	1429.3	454.63	-1480.4	1449.7	153.8	-1454	1747.2	317.65	NaN	NaN	NaN	NaN	NaN	NaN	-1592.3	1024.1	333.55	-1591.9	1032.4	252.39	-1463.9	925.28	490	-1454.8	958.44	124.11	-1479.6	1080.8	462.97	-1472.7	1094.6	160.66	-1612.3	993.87	297.01	NaN	NaN	NaN	-1506.7	623.28	451.93	NaN	NaN	NaN	NaN	NaN	NaN	-1603.6	524.37	422.27	-1601.2	532.78	290.62	-1752.4	342.46	416.43	-1707.7	262.55	395.14	-1783.3	275.29	407.19	-1679.7	327.52	405.1	-1807.1	168.44	385.4	-1805	179.78	306.31	NaN	NaN	NaN	-1889.5	116.68	314.42	NaN	NaN	NaN	-1746.8	45.219	423.95	-1707.9	48.73	301.93	-1646.5	53.892	336.13	-1411.3	677.3	131.69	-1312.9	623.02	152.25	-1381.1	587.87	152.38	NaN	NaN	NaN	-1318.7	519.35	161.9	-1311.2	520.22	292.11	-1310.5	297.2	162.46	-1220.2	236.19	180.03	-1283.3	224.61	173.41	-1246.6	307.38	168.14	-1211.9	116.19	186.91	-1204.5	131.41	272.24	-1260.7	63.917	229.89	-1242.1	39.554	265.17	-1241.1	38.595	200.76	-1071.4	90.234	175.37	NaN	NaN	NaN	-1012.1	143.77	238.33	-1538.1	1492.3	325.53	-1623.6	1283.5	328.08
3	0.0083333	NaN	NaN	NaN	-1431.1	1428.7	454.07	-1475	1449.4	153.21	-1449.1	1746.7	317.39	NaN	NaN	NaN	NaN	NaN	NaN	-1586.8	1023.6	333.08	-1586.2	1031.8	251.92	-1458.5	924.79	489.48	-1449.3	957.89	123.75	-1474.2	1080.4	462.48	-1467.3	1094.1	160.06	-1606.8	993.33	296.55	NaN	NaN	NaN	-1500.5	622.54	451.85	NaN	NaN	NaN	NaN	NaN	NaN	-1596.6	523.16	422.12	-1594.7	531.78	290.57	-1746.9	342.91	416.76	-1703.8	262.88	395.22	-1779.1	276.26	407.41	-1674.6	327.45	404.97	-1804.5	169.99	385.59	-1802.4	181.29	306.58	NaN	NaN	NaN	-1887.5	119.64	314.4	NaN	NaN	NaN	-1744.7	46.134	422.6	-1707.4	48.744	302.02	-1646.4	53.867	336.03	-1405.2	676.75	131.69	-1307.1	622.57	152.96	-1375.3	587.35	152.77	NaN	NaN	NaN	-1312.8	519.02	162.59	-1305.8	519.91	292.43	-1306.6	296.7	162.77	-1216.7	235.02	180.36	-1280.3	223.99	173.75	-1242.7	306.42	168.8	-1209.7	115.26	187.13	-1202.2	130.06	272.64	-1259.2	64.326	230.25	-1241.2	39.463	265.4	-1240.3	38.819	200.97	-1070.1	87.257	175.42	NaN	NaN	NaN	-1009.7	139.72	238.42	-1533.2	1491.7	324.87	-1618.4	1282.8	327.27
4	0.0125	NaN	NaN	NaN	-1426.3	1428.2	453.5	-1469.5	1449.1	152.6	-1444	1746.3	317.13	NaN	NaN	NaN	NaN	NaN	NaN	-1581.1	1023.1	332.59	-1580.4	1031.2	251.44	-1452.9	924.29	488.93	-1443.5	957.35	123.38	-1468.6	1080	461.97	-1461.7	1093.5	159.45	-1601.1	992.79	296.07	NaN	NaN	NaN	-1494	621.77	451.78	NaN	NaN	NaN	NaN	NaN	NaN	-1589.4	521.91	421.98	-1587.8	530.72	290.52	-1741.1	343.39	417.08	-1699.6	263.25	395.31	-1774.6	277.27	407.63	-1669.3	327.38	404.85	-1801.8	171.63	385.76	-1799.4	182.85	306.84	NaN	NaN	NaN	-1885.3	122.79	314.34	NaN	NaN	NaN	-1742.5	47.042	421.24	-1706.9	48.763	302.11	-1646.2	53.832	335.93	-1398.9	676.22	131.69	-1301.1	622.12	153.65	-1369.5	586.83	153.14	NaN	NaN	NaN	-1306.8	518.68	163.25	-1300.3	519.59	292.77	-1302.6	296.22	163.1	-1213.1	233.85	180.69	-1277.2	223.37	174.08	-1238.7	305.47	169.46	-1207.4	114.34	187.34	-1199.8	128.71	273.04	-1257.7	64.773	230.6	-1240.2	39.405	265.63	-1239.6	39.071	201.19	-1068.7	84.208	175.47	NaN	NaN	NaN	-1007.2	135.55	238.5	-1528	1491.2	324.19	-1613	1282.2	326.42
5	0.016667	NaN	NaN	NaN	-1421.4	1427.6	452.92	-1463.8	1448.7	151.96	-1438.7	1745.9	316.87	NaN	NaN	NaN	NaN	NaN	NaN	-1575.2	1022.6	332.07	-1574.5	1030.5	250.92	-1447.1	923.79	488.35	-1437.5	956.82	122.98	-1462.8	1079.6	461.43	-1456	1093	158.83	-1595.2	992.24	295.56	NaN	NaN	NaN	-1487.3	620.97	451.74	NaN	NaN	NaN	NaN	NaN	NaN	-1581.9	520.61	421.87	-1580.7	529.58	290.49	-1735.1	343.91	417.37	-1695.2	263.64	395.4	-1769.9	278.31	407.86	-1663.7	327.3	404.75	-1798.9	173.35	385.93	-1796.2	184.45	307.11	NaN	NaN	NaN	-1883	126.12	314.25	NaN	NaN	NaN	-1740.4	47.933	419.88	-1706.3	48.786	302.18	-1646.1	53.784	335.82	-1392.5	675.71	131.69	-1295.1	621.67	154.31	-1363.5	586.33	153.48	NaN	NaN	NaN	-1300.7	518.33	163.89	-1294.6	519.26	293.13	-1298.5	295.75	163.43	-1209.4	232.69	181.03	-1273.9	222.77	174.4	-1234.6	304.52	170.1	-1205.1	113.43	187.55	-1197.4	127.36	273.45	-1256.1	65.258	230.96	-1239.1	39.384	265.86	-1238.7	39.354	201.41	-1067.2	81.114	175.5	NaN	NaN	NaN	-1004.7	131.28	238.55	-1522.7	1490.7	323.47	-1607.4	1281.5	325.54
6	0.020833	NaN	NaN	NaN	-1416.5	1427.1	452.32	-1457.8	1448.4	151.31	-1433.4	1745.5	316.61	NaN	NaN	NaN	NaN	NaN	NaN	-1569.3	1022.1	331.54	-1568.4	1030	250.39	-1441.2	923.29	487.76	-1431.4	956.32	122.57	-1457	1079.2	460.88	-1450.1	1092.6	158.22	-1589.3	991.7	295.02	NaN	NaN	NaN	-1480.3	620.14	451.73	NaN	NaN	NaN	NaN	NaN	NaN	-1574.1	519.27	421.8	-1573.3	528.37	290.46	-1728.8	344.46	417.64	-1690.5	264.06	395.5	-1764.8	279.37	408.08	-1658	327.23	404.69	-1795.8	175.17	386.07	-1792.7	186.08	307.37	NaN	NaN	NaN	-1880.4	129.64	314.12	NaN	NaN	NaN	-1738.3	48.804	418.54	-1705.8	48.814	302.25	-1646	53.721	335.7	-1386.1	675.24	131.69	-1288.9	621.24	154.93	-1357.5	585.85	153.79	NaN	NaN	NaN	-1294.6	517.99	164.48	-1288.9	518.93	293.49	-1294.3	295.31	163.76	-1205.7	231.53	181.37	-1270.5	222.18	174.71	-1230.3	303.6	170.73	-1202.7	112.55	187.75	-1194.9	126.05	273.85	-1254.5	65.778	231.3	-1238.1	39.404	266.08	-1237.9	39.667	201.62	-1065.8	78.003	175.52	NaN	NaN	NaN	-1002.2	126.95	238.59	-1517.3	1490.2	322.73	-1601.7	1280.8	324.62
7	0.025	NaN	NaN	NaN	-1411.5	1426.6	451.73	-1451.8	1448	150.64	-1427.9	1745.1	316.36	NaN	NaN	NaN	NaN	NaN	NaN	-1563.2	1021.6	330.97	-1562.2	1029.4	249.83	-1435.2	922.79	487.15	-1425.1	955.85	122.14	-1451	1078.9	460.31	-1444.2	1092.2	157.6	-1583.2	991.17	294.45	NaN	NaN	NaN	-1473.1	619.29	451.76	NaN	NaN	NaN	NaN	NaN	NaN	-1566	517.9	421.76	-1565.6	527.09	290.46	-1722.4	345.06	417.87	-1685.7	264.52	395.61	-1759.5	280.46	408.3	-1652.1	327.15	404.65	-1792.4	177.06	386.2	-1788.9	187.74	307.62	-1875.3	159.81	342.37	-1877.6	133.34	313.94	NaN	NaN	NaN	-1736.3	49.655	417.24	-1705.2	48.847	302.3	-1645.9	53.641	335.59	-1379.5	674.8	131.68	-1282.7	620.82	155.5	-1351.4	585.4	154.05	NaN	NaN	NaN	-1288.4	517.65	165.02	-1283.2	518.61	293.86	-1290	294.91	164.1	-1201.9	230.41	181.72	-1267	221.62	175	-1226	302.72	171.33	-1200.4	111.7	187.93	-1192.4	124.77	274.25	-1252.9	66.328	231.63	-1237.1	39.466	266.29	-1237.1	40.007	201.82	-1064.4	74.905	175.54	NaN	NaN	NaN	-999.71	122.59	238.6	-1511.8	1489.7	321.96	-1595.9	1280.2	323.66
8	0.029167	-1299.6	1265.9	286.96	-1406.4	1426.1	451.12	-1445.6	1447.7	149.95	-1422.4	1744.8	316.11	NaN	NaN	NaN	NaN	NaN	NaN	-1557.1	1021.1	330.39	-1555.9	1028.8	249.25	-1429.1	922.3	486.52	-1418.6	955.43	121.7	-1445.1	1078.6	459.72	-1438.2	1091.8	156.99	-1577	990.65	293.86	NaN	NaN	NaN	-1465.8	618.42	451.83	NaN	NaN	NaN	NaN	NaN	NaN	-1557.8	516.5	421.77	-1557.7	525.72	290.48	-1715.8	345.7	418.06	-1680.6	265	395.73	-1753.8	281.57	408.52	-1646	327.09	404.65	-1788.9	179.04	386.3	-1784.8	189.42	307.86	-1871.5	163.4	342.07	-1874.5	137.22	313.72	NaN	NaN	NaN	-1734.3	50.492	416.01	-1704.6	48.885	302.35	-1645.7	53.541	335.47	-1373	674.41	131.66	-1276.4	620.44	156.01	-1345.3	584.99	154.27	NaN	NaN	NaN	-1282.2	517.32	165.5	-1277.5	518.29	294.24	-1285.7	294.55	164.43	-1198	229.31	182.08	-1263.4	221.09	175.27	-1221.6	301.87	171.91	-1198.1	110.9	188.1	-1189.9	123.54	274.63	-1251.4	66.901	231.95	-1236.1	39.566	266.5	-1236.3	40.371	202.01	-1063	71.848	175.56	NaN	NaN	NaN	-997.26	118.24	238.59	-1506.3	1489.2	321.17	-1590.1	1279.6	322.68
9	0.033333	-1294.4	1266	286.49	-1401.3	1425.7	450.52	-1439.3	1447.4	149.26	-1416.8	1744.4	315.87	NaN	NaN	NaN	NaN	NaN	NaN	-1550.9	1020.6	329.79	-1549.6	1028.3	248.64	-1422.9	921.82	485.87	-1412.1	955.06	121.24	-1439.1	1078.3	459.13	-1432.2	1091.4	156.38	-1570.8	990.15	293.24	NaN	NaN	NaN	-1458.2	617.53	451.95	NaN	NaN	NaN	NaN	NaN	NaN	-1549.3	515.06	421.83	-1549.5	524.28	290.53	-1709	346.39	418.21	-1675.3	265.52	395.86	-1748	282.72	408.72	-1639.7	327.03	404.7	-1785.1	181.11	386.39	-1780.4	191.14	308.08	-1867.3	167.2	341.74	-1871.1	141.29	313.46	NaN	NaN	NaN	-1732.5	51.322	414.86	-1704.1	48.929	302.38	-1645.6	53.418	335.34	-1366.5	674.07	131.64	-1270.2	620.08	156.44	-1339.2	584.62	154.43	NaN	NaN	NaN	-1276.1	517	165.93	-1271.7	518	294.62	-1281.4	294.24	164.76	-1194.2	228.26	182.43	-1259.7	220.61	175.52	-1217.1	301.06	172.44	-1195.8	110.14	188.27	-1187.4	122.36	275	-1249.8	67.49	232.25	-1235.2	39.703	266.69	-1235.5	40.753	202.2	-1061.7	68.859	175.57	NaN	NaN	NaN	-994.87	113.92	238.57	-1500.7	1488.8	320.37	-1584.2	1279	321.67
10	0.0375	-1288.9	1266.1	286.03	-1396.2	1425.2	449.92	-1432.9	1447.2	148.57	-1411.2	1744.1	315.63	NaN	NaN	NaN	NaN	NaN	NaN	-1544.7	1020.2	329.16	-1543.2	1027.8	248.02	-1416.8	921.35	485.21	-1405.4	954.76	120.77	-1433.1	1078.1	458.52	-1426.1	1091.1	155.79	-1564.5	989.67	292.59	NaN	NaN	NaN	-1450.5	616.63	452.11	NaN	NaN	NaN	NaN	NaN	NaN	-1540.6	513.6	421.95	-1541	522.74	290.61	-1702.1	347.14	418.32	-1669.9	266.07	396.01	-1741.8	283.9	408.9	-1633.3	326.99	404.79	-1781.1	183.25	386.45	-1775.7	192.88	308.28	-1862.8	171.21	341.39	-1867.5	145.55	313.16	NaN	NaN	NaN	-1730.7	52.158	413.81	-1703.6	48.976	302.39	-1645.4	53.27	335.22	-1360	673.79	131.59	-1263.9	619.76	156.81	-1333.1	584.29	154.54	NaN	NaN	NaN	-1270	516.71	166.3	-1266.1	517.74	295.01	-1277.1	293.98	165.07	-1190.4	227.25	182.77	-1256	220.17	175.74	-1212.7	300.31	172.94	-1193.5	109.44	188.42	-1184.9	121.26	275.35	-1248.3	68.086	232.53	-1234.2	39.87	266.86	-1234.7	41.15	202.37	-1060.4	65.967	175.57	NaN	NaN	NaN	-992.56	109.66	238.54	-1495	1488.4	319.55	-1578.3	1278.5	320.63
